#tb 0: 1/1000
0,          0,          0,        0,    76614, f2370fc802dafdf5082beffc1907a9c6
0,         33,         33,        0,    76614, aad6de7b986234a1d621935b272501c9
0,         66,         66,        0,    76614, 8a6d3784e22e3b4f735e78916fbc3821
0,        100,        100,        0,    76614, 0c4afce19c43fdf3bb1b972810cc9126
0,        133,        133,        0,    76614, 814a68dd76a3135221131988910f51ba
0,        166,        166,        0,    76614, b2379c4b28dca10e67ac58631f9731c0
0,        200,        200,        0,    76614, b16fd651884340a428cea3fe0ac18ba6
0,        233,        233,        0,    76614, cb65cd4c421cfd6a19fb123ec27abbe6
0,        266,        266,        0,    76614, 7f1d2686b9808de8ecc723b18136d57d
0,        300,        300,        0,    76614, da7fd4bff4b6db0221c42492876c5c4d
